<?xml version="1.0" encoding="UTF-8" standalone="no"?>
<!-- Created with Inkscape (http://www.inkscape.org/) -->

<svg
   width="2000"
   height="2000"
   viewBox="0 0 529.16665 529.16668"
   version="1.1"
   id="svg5"
   inkscape:version="1.1.2 (0a00cf5339, 2022-02-04)"
   sodipodi:docname="LogoVers1.svg"
   xmlns:inkscape="http://www.inkscape.org/namespaces/inkscape"
   xmlns:sodipodi="http://sodipodi.sourceforge.net/DTD/sodipodi-0.dtd"
   xmlns="http://www.w3.org/2000/svg"
   xmlns:svg="http://www.w3.org/2000/svg">
  <sodipodi:namedview
     id="namedview7"
     pagecolor="#505050"
     bordercolor="#ffffff"
     borderopacity="1"
     inkscape:pageshadow="0"
     inkscape:pageopacity="0"
     inkscape:pagecheckerboard="1"
     inkscape:document-units="px"
     showgrid="false"
     units="px"
     width="2000px"
     inkscape:zoom="0.24363287"
     inkscape:cx="1463.2672"
     inkscape:cy="1015.8728"
     inkscape:window-width="1292"
     inkscape:window-height="704"
     inkscape:window-x="0"
     inkscape:window-y="0"
     inkscape:window-maximized="1"
     inkscape:current-layer="layer1" />
  <defs
     id="defs2" />
  <g
     inkscape:label="Ebene 1"
     inkscape:groupmode="layer"
     id="layer1">
    <g
       id="g952"
       transform="matrix(1.6130679,0,0,1.6130679,-165.67565,-158.92571)">
      <path
         id="path727"
         d="m 107.88014,127.82438 c 17.63123,5.23779 24.93599,8.04122 45.36866,10.24182 37.22128,4.00875 74.78812,0.69797 111.76068,-3.92491 9.907,-1.23873 19.75739,-2.89459 29.63608,-4.34189 0,0 16.38483,-12.30745 16.38483,-12.30745 v 0 c -10.28713,1.79004 -20.52823,3.86867 -30.86142,5.37013 -36.00868,5.23221 -73.22942,8.978 -109.45187,3.09592 -8.79897,-1.42885 -17.39139,-4.07084 -25.80908,-7.00445 -4.78233,-1.66667 -9.0789,-4.4908 -13.61835,-6.73621 0,0 -23.40953,15.60704 -23.40953,15.60704 z"
         style="stroke-width:0.264583" />
      <path
         id="path729"
         d="m 107.88014,127.82438 c 1.59521,2.46377 5.15673,17.58494 10.34843,26.4485 3.8722,6.61084 8.95843,12.44931 12.94949,18.98908 20.27863,33.22871 34.91233,65.33786 41.24641,104.17237 2.13964,13.11821 2.13921,26.49689 3.20882,39.74532 -2.51504,34.97654 -1.06066,37.67206 -9.60079,70.81856 -2.47314,9.5989 -6.00451,18.89358 -9.00677,28.34037 l 18.85649,-8.93168 v 0 c 2.57145,-9.31391 5.61391,-18.5104 7.71435,-27.94171 7.47957,-33.58423 6.00632,-35.13752 7.81083,-70.49194 -3.24943,-36.45365 -2.08418,-44.31728 -12.85092,-79.80674 -6.52341,-21.50259 -18.43143,-46.60522 -27.64802,-67.25809 -3.10659,-6.96137 -6.40547,-13.84026 -9.31423,-20.88658 -1.12716,-2.73051 -9.37746,-25.99974 -10.30456,-28.8045 z"
         style="stroke-width:0.264583"
         sodipodi:nodetypes="cssscsccsscssscc" />
      <path
         id="path731"
         d="m 190.36732,262.91569 c 21.20685,-1.32477 29.00901,-1.45635 51.96021,-4.8714 11.85885,-1.76454 23.55323,-4.22128 35.32987,-6.33192 0,0 19.99307,-12.60075 19.99307,-12.60075 v 0 c -11.31923,1.90701 -22.53884,4.28114 -33.95769,5.72103 -23.01008,2.90153 -25.8725,2.23167 -45.95613,1.69247 0,0 -27.36933,16.39057 -27.36933,16.39057 z"
         style="stroke-width:0.290268" />
      <path
         id="path733"
         d="m 215.29231,414.28453 c 22.62313,-0.12846 44.33676,-7.54132 65.29752,-15.61545 8.1768,-3.14973 16.31147,-6.44263 24.26146,-10.15275 8.08249,-3.77195 15.86587,-8.18411 23.79883,-12.27616 17.4445,-10.49764 26.06813,-14.82507 41.83503,-27.62498 10.69687,-8.68397 21.81263,-19.9114 30.71855,-30.58691 3.76619,-4.51455 7.44566,-9.14007 10.61289,-14.11457 2.7729,-4.35474 4.76291,-9.18352 7.14435,-13.77528 1.01471,-4.8008 2.68159,-9.50429 3.04415,-14.40243 1.57156,-21.2324 -8.51575,-42.39354 -19.95139,-59.34456 -2.93522,-4.35084 -6.33506,-8.35224 -9.50258,-12.52839 -15.18312,-17.86557 -33.1995,-33.19787 -52.68569,-45.9261 -3.1775,-2.07544 -6.4904,-3.92451 -9.73559,-5.88679 -3.06016,-1.61063 -6.12031,-3.22127 -9.18045,-4.83192 0,0 -26.30383,-2.02225 -26.30383,-2.02225 v 0 c 3.15937,1.56676 6.31873,3.13355 9.47811,4.70031 3.35546,1.91136 6.78146,3.69803 10.06641,5.73407 19.85871,12.30883 37.96774,27.66154 53.61063,45.2037 3.20219,4.0857 6.63098,7.99518 9.60656,12.25715 11.44239,16.38932 21.11532,36.59216 19.80887,57.33224 -0.2944,4.67348 -1.76009,9.191 -2.64013,13.78649 -2.14427,4.50722 -3.91283,9.2236 -6.43281,13.52163 -2.89382,4.93563 -6.24454,9.59146 -9.75464,14.08737 -19.33548,24.76586 -43.40443,42.86641 -70.45625,57.9321 -7.94563,4.02477 -15.7337,8.39444 -23.83689,12.07431 -22.25358,10.10597 -46.06483,18.33359 -70.23783,21.86933 -10.08377,1.47493 -15.74511,0.99108 -25.25256,0.70444 0,0 26.68728,9.8854 26.68728,9.8854 z"
         style="stroke-width:0.267889" />
    </g>
  </g>
</svg>
